<svg width="40" height="40" viewBox="0 0 40 40" fill="none" focusable='false' xmlns="http://www.w3.org/2000/svg">
<path d="M37.9211 0.506836H1.73476C0.864516 0.506836 0.161438 1.20991 0.161438 2.08016V38.2665C0.161438 39.1368 0.864516 39.8399 1.73476 39.8399H37.9211C38.7914 39.8399 39.4945 39.1368 39.4945 38.2665V2.08016C39.4945 1.20991 38.7914 0.506836 37.9211 0.506836ZM11.8286 34.0235H5.99256V15.2518H11.8286V34.0235ZM8.91303 12.6853C8.24401 12.6853 7.59001 12.4869 7.03374 12.1152C6.47747 11.7436 6.04391 11.2153 5.78788 10.5972C5.53186 9.97906 5.46487 9.29893 5.59539 8.64276C5.72591 7.98659 6.04808 7.38386 6.52115 6.91079C6.99422 6.43772 7.59695 6.11556 8.25311 5.98504C8.90928 5.85452 9.58942 5.92151 10.2075 6.17753C10.8256 6.43355 11.3539 6.86712 11.7256 7.42339C12.0973 7.97966 12.2957 8.63366 12.2957 9.30268C12.2908 11.171 10.7764 12.6853 8.91303 12.6853ZM33.6781 34.0235H27.847V24.8933C27.847 22.7152 27.8076 19.9177 24.8134 19.9177C21.7798 19.9177 21.3128 22.2875 21.3128 24.736V34.0235H15.4866V15.2518H21.0817V17.8183H21.1604C21.9372 16.3433 23.8399 14.7847 26.6817 14.7847C32.5915 14.7847 33.6781 18.6738 33.6781 23.7281V34.0235Z" fill="#112D57"/>
</svg>
