<svg width="42" height="34" viewBox="0 0 42 34" fill="none" focusable='false' xmlns="http://www.w3.org/2000/svg">
<path d="M41.6279 4.50325C40.1234 5.15224 38.4861 5.61932 36.7997 5.80124C38.5506 4.76105 39.8618 3.11774 40.4872 1.17961C38.8442 2.15698 37.0444 2.84233 35.1674 3.20526C34.3829 2.36661 33.4342 1.69851 32.3802 1.24258C31.3262 0.786647 30.1897 0.55266 29.0413 0.555196C24.3951 0.555196 20.6585 4.32133 20.6585 8.94296C20.6585 9.59196 20.7371 10.241 20.865 10.8654C13.9079 10.5015 7.70314 7.17789 3.57809 2.08918C2.82646 3.37299 2.43258 4.83476 2.43743 6.3224C2.43743 9.23304 3.91734 11.7995 6.17407 13.3089C4.84414 13.2566 3.54536 12.891 2.38335 12.242V12.3453C2.38335 16.4212 5.26449 19.7989 9.10438 20.5757C8.3834 20.763 7.64172 20.8588 6.89681 20.8609C6.35107 20.8609 5.83482 20.8068 5.31366 20.733C6.37565 24.0567 9.46821 26.4707 13.1508 26.5494C10.2696 28.8061 6.66082 30.1336 2.74226 30.1336C2.03919 30.1336 1.39019 30.109 0.716614 30.0304C4.43358 32.4149 8.8438 33.7916 13.5933 33.7916C29.0118 33.7916 37.4487 21.0182 37.4487 9.9312C37.4487 9.56737 37.4487 9.20354 37.4241 8.83971C39.0565 7.64497 40.4872 6.16507 41.6279 4.50325Z" fill="#112D57"/>
</svg>
