<svg id="Слой_1" data-name="Слой 1" xmlns="http://www.w3.org/2000/svg" xmlns:xlink="http://www.w3.org/1999/xlink" viewBox="0 0 180 180"><defs><style>.cls-1{fill:#fff;}.cls-2{mask:url(#mask);}.cls-3{fill:#1abcfe;}.cls-4{fill:#0acf83;}.cls-5{fill:#ff7262;}.cls-6{fill:#f24e1e;}.cls-7{fill:#a259ff;}</style><mask id="mask" x="15.33" y="10.67" width="149.33" height="149.33" maskUnits="userSpaceOnUse"><g transform="translate(0 0)"><g id="a"><path class="cls-1" d="M15.33,10.67H164.67V160H15.33V10.67Z"/></g></g></mask></defs><title>apple-touch-icon</title><rect class="cls-1" width="180" height="180" rx="36" ry="36"/><g class="cls-2"><path id="b" class="cls-3" d="M90,90a23.33,23.33,0,1,1,23.33,23.33A23.33,23.33,0,0,1,90,90Z" transform="translate(0 0)"/><path id="c" class="cls-4" d="M43.33,136.67a23.33,23.33,0,0,1,23.33-23.33H90v23.33A23.33,23.33,0,0,1,43.33,136.67Z" transform="translate(0 0)"/><path id="d" class="cls-5" d="M90,20V66.67h23.33a23.33,23.33,0,1,0,0-46.67H90Z" transform="translate(0 0)"/><path id="e" class="cls-6" d="M43.33,43.33A23.33,23.33,0,0,0,66.67,66.67H90V20H66.67A23.33,23.33,0,0,0,43.33,43.33Z" transform="translate(0 0)"/><path id="e-2" data-name="e" class="cls-7" d="M43.33,90a23.33,23.33,0,0,0,23.33,23.33H90V66.67H66.67A23.33,23.33,0,0,0,43.33,90Z" transform="translate(0 0)"/></g></svg>